<svg xmlns="http://www.w3.org/2000/svg" shape-rendering="crispEdges" viewBox="0 -.5 204 204">
  <path stroke="#3d0503" d="M5 0h194M3 1h2m194 0h2M2 2h1m198 0h1M1 3h1m200 0h1M1 4h1m200 0h1M0 5h1m202 0h1M0 6h1m202 0h1M0 7h1m202 0h1M0 8h1m202 0h1M0 9h1m202 0h1M0 10h1m202 0h1M0 11h1m202 0h1M0 12h1m202 0h1M0 13h1m202 0h1M0 14h1m202 0h1M0 15h1m202 0h1M0 16h1m49 0h104m49 0h1M0 17h1m36 0h13m104 0h13m36 0h1M0 18h1m28 0h8m130 0h8m28 0h1M0 19h1m24 0h4m146 0h4m24 0h1M0 20h1m21 0h3m154 0h3m21 0h1M0 21h1m19 0h2m160 0h2m19 0h1M0 22h1m18 0h1m164 0h1m18 0h1M0 23h1m17 0h1m166 0h1m17 0h1M0 24h1m16 0h1m168 0h1m16 0h1M0 25h1m15 0h1m170 0h1m15 0h1M0 26h1m15 0h1m170 0h1m15 0h1M0 27h1m14 0h1m172 0h1m14 0h1M0 28h1m14 0h1m172 0h1m14 0h1M0 29h1m13 0h1m174 0h1m13 0h1M0 30h1m13 0h1m174 0h1m13 0h1M0 31h1m13 0h1m174 0h1m13 0h1M0 32h1m13 0h1m174 0h1m13 0h1M0 33h1m13 0h1m174 0h1m13 0h1M0 34h1m12 0h1m176 0h1m12 0h1M0 35h1m12 0h1m176 0h1m12 0h1M0 36h1m12 0h1m176 0h1m12 0h1M0 37h1m12 0h1m176 0h1m12 0h1M0 38h1m12 0h1m176 0h1m12 0h1M0 39h1m12 0h1m176 0h1m12 0h1M0 40h1m12 0h1m176 0h1m12 0h1M0 41h1m11 0h1m178 0h1m11 0h1M0 42h1m11 0h1m178 0h1m11 0h1M0 43h1m11 0h1m178 0h1m11 0h1M0 44h1m11 0h1m178 0h1m11 0h1M0 45h1m11 0h1m178 0h1m11 0h1M0 46h1m11 0h1m178 0h1m11 0h1M0 47h1m11 0h1m178 0h1m11 0h1M0 48h1m11 0h1m178 0h1m11 0h1M0 49h1m11 0h1m178 0h1m11 0h1M0 50h1m11 0h1m178 0h1m11 0h1M0 51h1m11 0h1m178 0h1m11 0h1M0 52h1m10 0h1m180 0h1m10 0h1M0 53h1m10 0h1m180 0h1m10 0h1M0 54h1m10 0h1m180 0h1m10 0h1M0 55h1m10 0h1m180 0h1m10 0h1M0 56h1m10 0h1m180 0h1m10 0h1M0 57h1m10 0h1m180 0h1m10 0h1M0 58h1m10 0h1m180 0h1m10 0h1M0 59h1m10 0h1m180 0h1m10 0h1M0 60h1m10 0h1m180 0h1m10 0h1M0 61h1m10 0h1m180 0h1m10 0h1M0 62h1m10 0h1m180 0h1m10 0h1M0 63h1m10 0h1m180 0h1m10 0h1M0 64h1m10 0h1m180 0h1m10 0h1M0 65h1m10 0h1m180 0h1m10 0h1M0 66h1m10 0h1m180 0h1m10 0h1M0 67h1m10 0h1m180 0h1m10 0h1M0 68h1m10 0h1m180 0h1m10 0h1M0 69h1m10 0h1m180 0h1m10 0h1M0 70h1m10 0h1m180 0h1m10 0h1M0 71h1m10 0h1m180 0h1m10 0h1M0 72h1m10 0h1m180 0h1m10 0h1M0 73h1m10 0h1m180 0h1m10 0h1M0 74h1m10 0h1m180 0h1m10 0h1M0 75h1m10 0h1m180 0h1m10 0h1M0 76h1m10 0h1m180 0h1m10 0h1M0 77h1m10 0h1m180 0h1m10 0h1M0 78h1m10 0h1m180 0h1m10 0h1M0 79h1m10 0h1m180 0h1m10 0h1M0 80h1m10 0h1m180 0h1m10 0h1M0 81h1m10 0h1m180 0h1m10 0h1M0 82h1m10 0h1m180 0h1m10 0h1M0 83h1m10 0h1m180 0h1m10 0h1M0 84h1m10 0h1m180 0h1m10 0h1M0 85h1m10 0h1m180 0h1m10 0h1M0 86h1m10 0h1m180 0h1m10 0h1M0 87h1m10 0h1m180 0h1m10 0h1M0 88h1m10 0h1m180 0h1m10 0h1M0 89h1m10 0h1m180 0h1m10 0h1M0 90h1m10 0h1m180 0h1m10 0h1M0 91h1m10 0h1m180 0h1m10 0h1M0 92h1m10 0h1m180 0h1m10 0h1M0 93h1m10 0h1m180 0h1m10 0h1M0 94h1m10 0h1m180 0h1m10 0h1M0 95h1m10 0h1m180 0h1m10 0h1M0 96h1m10 0h1m180 0h1m10 0h1M0 97h1m10 0h1m180 0h1m10 0h1M0 98h1m10 0h1m180 0h1m10 0h1M0 99h1m10 0h1m180 0h1m10 0h1M0 100h1m10 0h1m180 0h1m10 0h1M0 101h1m10 0h1m180 0h1m10 0h1M0 102h1m10 0h1m180 0h1m10 0h1M0 103h1m10 0h1m180 0h1m10 0h1M0 104h1m10 0h1m180 0h1m10 0h1M0 105h1m10 0h1m180 0h1m10 0h1M0 106h1m10 0h1m180 0h1m10 0h1M0 107h1m10 0h1m180 0h1m10 0h1M0 108h1m10 0h1m180 0h1m10 0h1M0 109h1m10 0h1m180 0h1m10 0h1M0 110h1m10 0h1m180 0h1m10 0h1M0 111h1m10 0h1m180 0h1m10 0h1M0 112h1m10 0h1m180 0h1m10 0h1M0 113h1m10 0h1m180 0h1m10 0h1M0 114h1m10 0h1m180 0h1m10 0h1M0 115h1m10 0h1m180 0h1m10 0h1M0 116h1m10 0h1m180 0h1m10 0h1M0 117h1m10 0h1m180 0h1m10 0h1M0 118h1m10 0h1m180 0h1m10 0h1M0 119h1m10 0h1m180 0h1m10 0h1M0 120h1m10 0h1m180 0h1m10 0h1M0 121h1m10 0h1m180 0h1m10 0h1M0 122h1m10 0h1m180 0h1m10 0h1M0 123h1m10 0h1m180 0h1m10 0h1M0 124h1m10 0h1m180 0h1m10 0h1M0 125h1m10 0h1m180 0h1m10 0h1M0 126h1m10 0h1m180 0h1m10 0h1M0 127h1m10 0h1m180 0h1m10 0h1M0 128h1m10 0h1m180 0h1m10 0h1M0 129h1m10 0h1m180 0h1m10 0h1M0 130h1m10 0h1m180 0h1m10 0h1M0 131h1m10 0h1m180 0h1m10 0h1M0 132h1m10 0h1m180 0h1m10 0h1M0 133h1m10 0h1m180 0h1m10 0h1M0 134h1m10 0h1m180 0h1m10 0h1M0 135h1m10 0h1m180 0h1m10 0h1M0 136h1m10 0h1m180 0h1m10 0h1M0 137h1m11 0h1m178 0h1m11 0h1M0 138h1m11 0h1m178 0h1m11 0h1M0 139h1m11 0h1m178 0h1m11 0h1M0 140h1m11 0h1m178 0h1m11 0h1M0 141h1m11 0h1m178 0h1m11 0h1M0 142h1m11 0h1m178 0h1m11 0h1M0 143h1m11 0h1m178 0h1m11 0h1M0 144h1m11 0h1m178 0h1m11 0h1M0 145h1m11 0h1m178 0h1m11 0h1M0 146h1m11 0h1m178 0h1m11 0h1M0 147h1m11 0h1m178 0h1m11 0h1M0 148h1m12 0h1m176 0h1m12 0h1M0 149h1m12 0h1m176 0h1m12 0h1M0 150h1m12 0h1m176 0h1m12 0h1M0 151h1m12 0h1m176 0h1m12 0h1M0 152h1m12 0h1m176 0h1m12 0h1M0 153h1m12 0h1m176 0h1m12 0h1M0 154h1m12 0h1m176 0h1m12 0h1M0 155h1m13 0h1m174 0h1m13 0h1M0 156h1m13 0h1m174 0h1m13 0h1M0 157h1m13 0h1m174 0h1m13 0h1M0 158h1m13 0h1m174 0h1m13 0h1M0 159h1m13 0h1m174 0h1m13 0h1M0 160h1m14 0h1m172 0h1m14 0h1M0 161h1m14 0h1m172 0h1m14 0h1M0 162h1m15 0h1m170 0h1m15 0h1M0 163h1m15 0h1m170 0h1m15 0h1M0 164h1m16 0h1m168 0h1m16 0h1M0 165h1m17 0h1m166 0h1m17 0h1M0 166h1m18 0h1m164 0h1m18 0h1M0 167h1m19 0h2m160 0h2m19 0h1M0 168h1m21 0h3m154 0h3m21 0h1M0 169h1m24 0h4m146 0h4m24 0h1M0 170h1m28 0h8m130 0h8m28 0h1M0 171h1m36 0h13m104 0h13m36 0h1M0 172h1m49 0h104m49 0h1M0 173h1m202 0h1M0 174h1m202 0h1M0 175h1m202 0h1M0 176h1m202 0h1M1 177h1m200 0h1M1 178h1m200 0h1M2 179h1m198 0h1M3 180h2m194 0h2M5 181h41m112 0h41"/>
  <path stroke="#fff" d="M5 1h194M3 2h2m194 0h2M2 3h1m198 0h1M2 4h1m198 0h1M1 5h1m200 0h1M1 6h1m200 0h1M1 7h1m200 0h1M1 8h1m200 0h1M1 9h1m200 0h1M1 10h1m200 0h1M1 11h1m200 0h1M1 12h1m200 0h1M1 13h1m200 0h1M1 14h1m200 0h1M1 15h1m200 0h1M1 16h1m200 0h1M1 17h1m200 0h1M1 18h1m200 0h1M1 19h1m200 0h1M1 20h1m200 0h1M1 21h1m200 0h1M1 22h1m200 0h1M1 23h1m200 0h1M1 24h1m200 0h1M1 25h1m200 0h1M1 26h1m200 0h1M1 27h1m200 0h1M1 28h1m200 0h1M1 29h1m200 0h1M1 30h1m200 0h1M1 31h1m200 0h1M1 32h1m200 0h1M1 33h1m200 0h1M1 34h1m200 0h1M1 35h1m200 0h1M1 36h1m200 0h1M1 37h1m200 0h1M1 38h1m200 0h1M1 39h1m200 0h1M1 40h1m200 0h1M1 41h1m200 0h1M1 42h1m200 0h1M1 43h1m200 0h1M1 44h1m200 0h1M1 45h1m200 0h1M1 46h1m200 0h1M1 47h1m200 0h1M1 48h1m200 0h1M1 49h1m200 0h1M1 50h1m200 0h1M1 51h1m200 0h1M1 52h1m200 0h1M1 53h1m200 0h1M1 54h1m200 0h1M1 55h1m200 0h1M1 56h1m200 0h1M1 57h1m200 0h1M1 58h1m200 0h1M1 59h1m200 0h1M1 60h1m200 0h1M1 61h1m200 0h1M1 62h1m200 0h1M1 63h1m200 0h1M1 64h1m200 0h1M1 65h1m200 0h1M1 66h1m200 0h1M1 67h1m200 0h1M1 68h1m200 0h1M1 69h1m200 0h1M1 70h1m200 0h1M1 71h1m200 0h1M1 72h1m200 0h1M1 73h1m200 0h1M1 74h1m200 0h1M1 75h1m200 0h1M1 76h1m200 0h1M1 77h1m200 0h1M1 78h1m200 0h1M1 79h1m200 0h1M1 80h1m200 0h1M1 81h1m200 0h1M1 82h1m200 0h1M1 83h1m200 0h1M1 84h1m200 0h1M1 85h1m200 0h1M1 86h1m200 0h1M1 87h1m200 0h1M1 88h1m200 0h1M1 89h1m200 0h1M1 90h1m200 0h1M1 91h1m200 0h1M1 92h1m200 0h1M1 93h1m200 0h1M1 94h1m200 0h1M1 95h1m200 0h1M1 96h1m200 0h1M1 97h1m200 0h1M1 98h1m200 0h1M1 99h1m200 0h1M1 100h1m200 0h1M1 101h1m200 0h1M1 102h1m200 0h1M1 103h1m200 0h1M1 104h1m200 0h1M1 105h1m200 0h1M1 106h1m200 0h1M1 107h1m200 0h1M1 108h1m200 0h1M1 109h1m200 0h1M1 110h1m200 0h1M1 111h1m200 0h1M1 112h1m200 0h1M1 113h1m200 0h1M1 114h1m200 0h1M1 115h1m200 0h1M1 116h1m200 0h1M1 117h1m200 0h1M1 118h1m200 0h1M1 119h1m200 0h1M1 120h1m200 0h1M1 121h1m200 0h1M1 122h1m200 0h1M1 123h1m200 0h1M1 124h1m200 0h1M1 125h1m200 0h1M1 126h1m200 0h1M1 127h1m200 0h1M1 128h1m200 0h1M1 129h1m200 0h1M1 130h1m200 0h1M1 131h1m200 0h1M1 132h1m200 0h1M1 133h1m200 0h1M1 134h1m200 0h1M1 135h1m200 0h1M1 136h1m200 0h1M1 137h1m200 0h1M1 138h1m200 0h1M1 139h1m200 0h1M1 140h1m200 0h1M1 141h1m200 0h1M1 142h1m200 0h1M1 143h1m200 0h1M1 144h1m200 0h1M1 145h1m200 0h1M1 146h1m200 0h1M1 147h1m200 0h1M1 148h1m200 0h1M1 149h1m200 0h1M1 150h1m200 0h1M1 151h1m200 0h1M1 152h1m200 0h1M1 153h1m200 0h1M1 154h1m200 0h1M1 155h1m200 0h1M1 156h1m200 0h1M1 157h1m200 0h1M1 158h1m200 0h1M1 159h1m200 0h1M1 160h1m200 0h1M1 161h1m200 0h1M1 162h1m200 0h1M1 163h1m200 0h1M1 164h1m200 0h1M1 165h1m200 0h1M1 166h1m200 0h1M1 167h1m200 0h1M1 168h1m200 0h1M1 169h1m200 0h1M1 170h1m200 0h1M1 171h1m200 0h1M1 172h1m200 0h1M1 173h1m200 0h1M1 174h1m200 0h1M1 175h1m200 0h1M1 176h1m200 0h1M2 178h1m198 0h1m-155 4h1m108 0h1M5 184h1m41 0h1m108 0h1m41 0h1M5 185h1m41 0h1m108 0h1m41 0h1M5 186h1m41 0h1m108 0h1m41 0h1M5 187h1m41 0h1m108 0h1m41 0h1M5 188h1m41 0h1m108 0h1m41 0h1M5 189h1m41 0h1m108 0h1m41 0h1M5 190h1m41 0h1m108 0h1m41 0h1M5 191h1m41 0h1m108 0h1m41 0h1M5 192h1m41 0h1m108 0h1m41 0h1M5 193h1m41 0h1m108 0h1m41 0h1M5 194h1m41 0h1m108 0h1m41 0h1M5 195h1m41 0h1m108 0h1m41 0h1m-152 1h1m108 0h1m-110 1h1m108 0h1M6 198h1m40 0h1m108 0h1m40 0h1m-151 1h1m108 0h1m-109 1h1m106 0h1m-108 1h1m106 0h1"/>
  <path stroke="#ff381c" d="M5 2h194M3 3h198M3 4h198M2 5h200M2 6h200M2 7h200M2 8h200M2 9h200M2 10h200M2 11h4m192 0h4M2 12h3m194 0h3M2 13h2m196 0h2M2 14h2m196 0h2M2 15h2m196 0h2M2 16h2m196 0h2M2 17h2m196 0h2M2 18h2m196 0h2M2 19h2m196 0h2M2 20h2m196 0h2M2 21h2m196 0h2M2 22h2m196 0h2M2 23h2m196 0h2M2 24h2m196 0h2M2 25h2m196 0h2M2 26h2m196 0h2M2 27h2m196 0h2M2 28h2m196 0h2M2 29h2m196 0h2M2 30h2m196 0h2M2 31h2m196 0h2M2 32h2m196 0h2M2 33h2m196 0h2M2 34h2m196 0h2M2 35h2m196 0h2M2 36h2m196 0h2M2 37h2m196 0h2M2 38h2m196 0h2M2 39h2m196 0h2M2 40h2m196 0h2M2 41h2m196 0h2M2 42h2m196 0h2M2 43h2m196 0h2M2 44h2m196 0h2M2 45h2m196 0h2M2 46h2m196 0h2M2 47h2m196 0h2M2 48h2m196 0h2M2 49h2m196 0h2M2 50h2m196 0h2M2 51h2m196 0h2M2 52h2m196 0h2M2 53h2m196 0h2M2 54h2m196 0h2M2 55h2m196 0h2M2 56h2m196 0h2M2 57h2m196 0h2M2 58h2m196 0h2M2 59h2m196 0h2M2 60h2m196 0h2M2 61h2m196 0h2M2 62h2m196 0h2M2 63h2m196 0h2M2 64h2m196 0h2M2 65h2m196 0h2M2 66h2m196 0h2M2 67h2m196 0h2M2 68h2m196 0h2M2 69h2m196 0h2M2 70h2m196 0h2M2 71h2m196 0h2M2 72h2m196 0h2M2 73h2m196 0h2M2 74h2m196 0h2M2 75h2m196 0h2M2 76h2m196 0h2M2 77h2m196 0h2M2 78h2m196 0h2M2 79h2m196 0h2M2 80h2m196 0h2M2 81h2m196 0h2M2 82h2m196 0h2M2 83h2m196 0h2M2 84h2m196 0h2M2 85h2m196 0h2M2 86h2m196 0h2M2 87h2m196 0h2M2 88h2m196 0h2M2 89h2m196 0h2M2 90h2m196 0h2M2 91h2m196 0h2M2 92h2m196 0h2M2 93h2m196 0h2M2 94h2m196 0h2M2 95h2m196 0h2M2 96h2m196 0h2M2 97h2m196 0h2M2 98h2m196 0h2M2 99h2m196 0h2M2 100h2m196 0h2M2 101h2m196 0h2M2 102h2m196 0h2M2 103h2m196 0h2M2 104h2m196 0h2M2 105h2m196 0h2M2 106h2m196 0h2M2 107h2m196 0h2M2 108h2m196 0h2M2 109h2m196 0h2M2 110h2m196 0h2M2 111h2m196 0h2M2 112h2m196 0h2M2 113h2m196 0h2M2 114h2m196 0h2M2 115h2m196 0h2M2 116h2m196 0h2M2 117h2m196 0h2M2 118h2m196 0h2M2 119h2m196 0h2M2 120h2m196 0h2M2 121h2m196 0h2M2 122h2m196 0h2M2 123h2m196 0h2M2 124h2m196 0h2M2 125h2m196 0h2M2 126h2m196 0h2M2 127h2m196 0h2M2 128h2m196 0h2M2 129h2m196 0h2M2 130h2m196 0h2M2 131h2m196 0h2M2 132h2m196 0h2M2 133h2m196 0h2M2 134h2m196 0h2M2 135h2m196 0h2M2 136h2m196 0h2M2 137h2m196 0h2M2 138h2m196 0h2M2 139h2m196 0h2M2 140h2m196 0h2M2 141h2m196 0h2M2 142h2m196 0h2M2 143h2m196 0h2M2 144h2m196 0h2M2 145h2m196 0h2M2 146h2m196 0h2M2 147h2m196 0h2M2 148h2m196 0h2M2 149h2m196 0h2M2 150h2m196 0h2M2 151h2m196 0h2M2 152h2m196 0h2M2 153h2m196 0h2M2 154h2m196 0h2M2 155h2m196 0h2M2 156h2m196 0h2M2 157h2m196 0h2M2 158h2m196 0h2M2 159h2m196 0h2M2 160h2m196 0h2M2 161h2m196 0h2M2 162h2m196 0h2M2 163h2m196 0h2M2 164h2m11 0h1m172 0h1m11 0h2M2 165h2m13 0h1m168 0h1m13 0h2M2 166h2m9 0h1m2 0h1m1 0h1m166 0h1m1 0h1m2 0h1m9 0h2M2 167h2m11 0h1m1 0h3m164 0h3m1 0h1m11 0h2M2 168h2m7 0h1m2 0h1m1 0h2m1 0h3m160 0h3m1 0h2m1 0h1m2 0h1m7 0h2M2 169h2m9 0h1m1 0h10m154 0h10m1 0h1m9 0h2M2 170h2m5 0h1m2 0h1m1 0h2m1 0h12m146 0h12m1 0h2m1 0h1m2 0h1m5 0h2M2 171h2m7 0h1m1 0h24m130 0h24m1 0h1m7 0h2M2 172h2m3 0h1m2 0h1m1 0h2m1 0h35m104 0h35m1 0h2m1 0h1m2 0h1m3 0h2M2 173h2m5 0h1m1 0h182m1 0h1m5 0h2M2 174h2m4 0h1m1 0h2m1 0h178m1 0h2m1 0h1m4 0h2M2 175h2m3 0h1m1 0h186m1 0h1m3 0h2M2 176h3m1 0h1m1 0h2m1 0h182m1 0h2m1 0h1m1 0h3M2 177h4m44 0h104m44 0h4M3 178h47m1 0h102m1 0h47M3 179h47m1 0h102m1 0h47m-155 1h4m1 0h102m1 0h4m-112 1h4m1 0h102m1 0h4m-110 1h2m1 0h102m1 0h2m-109 1h3m1 0h102m1 0h3M6 184h5m2 0h2m2 0h2m2 0h2m2 0h2m2 0h2m2 0h2m2 0h2m2 0h2m1 0h2m2 0h2m1 0h102m1 0h2m2 0h2m1 0h2m2 0h2m2 0h2m2 0h2m2 0h2m2 0h2m2 0h2m2 0h2m2 0h5M6 185h3m2 0h2m2 0h2m2 0h2m2 0h2m2 0h2m2 0h2m2 0h2m2 0h2m2 0h3m2 0h2m1 0h102m1 0h2m2 0h3m2 0h2m2 0h2m2 0h2m2 0h2m2 0h2m2 0h2m2 0h2m2 0h2m2 0h3M6 186h2m1 0h2m2 0h2m2 0h2m2 0h2m2 0h2m2 0h2m2 0h2m2 0h2m2 0h2m1 0h2m2 0h2m1 0h102m1 0h2m2 0h2m1 0h2m2 0h2m2 0h2m2 0h2m2 0h2m2 0h2m2 0h2m2 0h2m2 0h2m1 0h2M6 187h3m2 0h2m2 0h2m2 0h2m2 0h2m2 0h2m2 0h2m2 0h2m2 0h2m2 0h3m2 0h2m1 0h102m1 0h2m2 0h3m2 0h2m2 0h2m2 0h2m2 0h2m2 0h2m2 0h2m2 0h2m2 0h2m2 0h3M6 188h2m1 0h2m2 0h2m2 0h2m2 0h2m2 0h2m2 0h2m2 0h2m2 0h2m2 0h2m1 0h2m2 0h2m1 0h102m1 0h2m2 0h2m1 0h2m2 0h2m2 0h2m2 0h2m2 0h2m2 0h2m2 0h2m2 0h2m2 0h2m1 0h2M6 189h3m2 0h2m2 0h2m2 0h2m2 0h2m2 0h2m2 0h2m2 0h2m2 0h2m2 0h3m2 0h2m1 0h102m1 0h2m2 0h3m2 0h2m2 0h2m2 0h2m2 0h2m2 0h2m2 0h2m2 0h2m2 0h2m2 0h3M6 190h2m1 0h2m2 0h2m2 0h2m2 0h2m2 0h2m2 0h2m2 0h2m2 0h2m2 0h2m1 0h2m2 0h2m1 0h102m1 0h2m2 0h2m1 0h2m2 0h2m2 0h2m2 0h2m2 0h2m2 0h2m2 0h2m2 0h2m2 0h2m1 0h2M6 191h3m2 0h2m2 0h2m2 0h2m2 0h2m2 0h2m2 0h2m2 0h2m2 0h2m2 0h3m2 0h2m1 0h102m1 0h2m2 0h3m2 0h2m2 0h2m2 0h2m2 0h2m2 0h2m2 0h2m2 0h2m2 0h2m2 0h3M6 192h2m1 0h2m2 0h2m2 0h2m2 0h2m2 0h2m2 0h2m2 0h2m2 0h2m2 0h2m1 0h2m2 0h2m1 0h102m1 0h2m2 0h2m1 0h2m2 0h2m2 0h2m2 0h2m2 0h2m2 0h2m2 0h2m2 0h2m2 0h2m1 0h2M6 193h3m2 0h2m2 0h2m2 0h2m2 0h2m2 0h2m2 0h2m2 0h2m2 0h2m2 0h3m2 0h2m1 0h102m1 0h2m2 0h3m2 0h2m2 0h2m2 0h2m2 0h2m2 0h2m2 0h2m2 0h2m2 0h2m2 0h3M6 194h2m1 0h2m2 0h2m2 0h2m2 0h2m2 0h2m2 0h2m2 0h2m2 0h2m2 0h2m1 0h2m2 0h2m1 0h102m1 0h2m2 0h2m1 0h2m2 0h2m2 0h2m2 0h2m2 0h2m2 0h2m2 0h2m2 0h2m2 0h2m1 0h2M6 195h3m2 0h2m2 0h2m2 0h2m2 0h2m2 0h2m2 0h2m2 0h2m2 0h2m2 0h3m2 0h2m1 0h102m1 0h2m2 0h3m2 0h2m2 0h2m2 0h2m2 0h2m2 0h2m2 0h2m2 0h2m2 0h2m2 0h3M6 196h5m2 0h2m2 0h2m2 0h2m2 0h2m2 0h2m2 0h2m2 0h2m2 0h5m2 0h2m1 0h102m1 0h2m2 0h5m2 0h2m2 0h2m2 0h2m2 0h2m2 0h2m2 0h2m2 0h2m2 0h5M7 197h39m2 0h2m1 0h102m1 0h2m2 0h39M9 198h37m2 0h3m1 0h100m1 0h3m2 0h37m-147 1h4m100 0h4m-107 1h106m-106 1h106"/>
  <path stroke="#ff9e92" d="M6 11h192M5 12h1m192 0h1M4 13h1m194 0h1M4 14h1m194 0h1M4 15h1m194 0h1M4 16h1m194 0h1M4 17h1m194 0h1M4 18h1m194 0h1M4 19h1m194 0h1M4 20h1m194 0h1M4 21h1m194 0h1M4 22h1m194 0h1M4 23h1m194 0h1M4 24h1m194 0h1M4 25h1m194 0h1M4 26h1m194 0h1M4 27h1m194 0h1M4 28h1m194 0h1M4 29h1m194 0h1M4 30h1m194 0h1M4 31h1m194 0h1M4 32h1m194 0h1M4 33h1m194 0h1M4 34h1m194 0h1M4 35h1m194 0h1M4 36h1m194 0h1M4 37h1m194 0h1M4 38h1m194 0h1M4 39h1m194 0h1M4 40h1m194 0h1M4 41h1m194 0h1M4 42h1m194 0h1M4 43h1m194 0h1M4 44h1m194 0h1M4 45h1m194 0h1M4 46h1m194 0h1M4 47h1m194 0h1M4 48h1m194 0h1M4 49h1m194 0h1M4 50h1m194 0h1M4 51h1m194 0h1M4 52h1m194 0h1M4 53h1m194 0h1M4 54h1m194 0h1M4 55h1m194 0h1M4 56h1m194 0h1M4 57h1m194 0h1M4 58h1m194 0h1M4 59h1m194 0h1M4 60h1m194 0h1M4 61h1m194 0h1M4 62h1m194 0h1M4 63h1m194 0h1M4 64h1m194 0h1M4 65h1m194 0h1M4 66h1m194 0h1M4 67h1m194 0h1M4 68h1m194 0h1M4 69h1m194 0h1M4 70h1m194 0h1M4 71h1m194 0h1M4 72h1m194 0h1M4 73h1m194 0h1M4 74h1m194 0h1M4 75h1m194 0h1M4 76h1m194 0h1M4 77h1m194 0h1M4 78h1m194 0h1M4 79h1m194 0h1M4 80h1m194 0h1M4 81h1m194 0h1M4 82h1m194 0h1M4 83h1m194 0h1M4 84h1m194 0h1M4 85h1m194 0h1M4 86h1m194 0h1M4 87h1m194 0h1M4 88h1m194 0h1M4 89h1m194 0h1M4 90h1m194 0h1M4 91h1m194 0h1M4 92h1m194 0h1M4 93h1m194 0h1M4 94h1m194 0h1M4 95h1m194 0h1M4 96h1m194 0h1M4 97h1m194 0h1M4 98h1m194 0h1M4 99h1m194 0h1M4 100h1m194 0h1M4 101h1m194 0h1M4 102h1m194 0h1M4 103h1m194 0h1M4 104h1m194 0h1M4 105h1m194 0h1M4 106h1m194 0h1M4 107h1m194 0h1M4 108h1m194 0h1M4 109h1m194 0h1M4 110h1m194 0h1M4 111h1m194 0h1M4 112h1m194 0h1M4 113h1m194 0h1M4 114h1m194 0h1M4 115h1m194 0h1M4 116h1m194 0h1M4 117h1m194 0h1M4 118h1m194 0h1M4 119h1m194 0h1M4 120h1m194 0h1M4 121h1m194 0h1M4 122h1m194 0h1M4 123h1m194 0h1M4 124h1m194 0h1M4 125h1m194 0h1M4 126h1m194 0h1M4 127h1m194 0h1M4 128h1m194 0h1M4 129h1m194 0h1M4 130h1m194 0h1M4 131h1m194 0h1M4 132h1m194 0h1M4 133h1m194 0h1M4 134h1m194 0h1M4 135h1m194 0h1M4 136h1m194 0h1M4 137h1m194 0h1M4 138h1m194 0h1M4 139h1m194 0h1M4 140h1m194 0h1M4 141h1m194 0h1M4 142h1m194 0h1M4 143h1m194 0h1M4 144h1m194 0h1M4 145h1m194 0h1M4 146h1m194 0h1M4 147h1m194 0h1M4 148h1m194 0h1M4 149h1m194 0h1M4 150h1m194 0h1M4 151h1m194 0h1M4 152h1m194 0h1M4 153h1m194 0h1M4 154h1m194 0h1M4 155h1m194 0h1M4 156h1m194 0h1M4 157h1m194 0h1M4 158h1m194 0h1M4 159h1m194 0h1M4 160h1m194 0h1M4 161h1m194 0h1M4 162h1m194 0h1M4 163h1m194 0h1M4 164h1m194 0h1M4 165h1m194 0h1M4 166h1m194 0h1M4 167h1m194 0h1M4 168h1m194 0h1M4 169h1m194 0h1M4 170h1m194 0h1M4 171h1m194 0h1M4 172h1m194 0h1M4 173h1m194 0h1M4 174h1m194 0h1M4 175h1m194 0h1M5 176h1m192 0h1M6 177h44m104 0h44m-148 1h1m102 0h1m-104 1h1m102 0h1m-104 1h1m102 0h1m-104 1h1m102 0h1m-104 1h1m102 0h1m-104 1h1m102 0h1m-104 1h1m102 0h1m-104 1h1m102 0h1m-104 1h1m102 0h1m-104 1h1m102 0h1m-104 1h1m102 0h1m-104 1h1m102 0h1m-104 1h1m102 0h1m-104 1h1m102 0h1m-104 1h1m102 0h1m-104 1h1m102 0h1m-104 1h1m102 0h1m-104 1h1m102 0h1m-104 1h1m102 0h1m-104 1h1m102 0h1m-103 1h1m100 0h1m-101 1h100"/>
  <path stroke="#9a0a00" d="M6 12h1m1 0h2m1 0h182m1 0h2m1 0h1M7 13h1m1 0h186m1 0h1M8 14h1m1 0h2m1 0h178m1 0h2m1 0h1M5 15h1m3 0h1m1 0h182m1 0h1m3 0h1M7 16h1m2 0h1m1 0h2m1 0h35m104 0h35m1 0h2m1 0h1m2 0h1M11 17h1m1 0h24m130 0h24m1 0h1M9 18h1m2 0h1m1 0h2m1 0h12m146 0h12m1 0h2m1 0h1m2 0h1M13 19h1m1 0h10m154 0h10m1 0h1M11 20h1m2 0h1m1 0h2m1 0h3m160 0h3m1 0h2m1 0h1m2 0h1M15 21h1m1 0h3m164 0h3m1 0h1M13 22h1m2 0h1m1 0h1m166 0h1m1 0h1m2 0h1M17 23h1m168 0h1M15 24h1m172 0h1"/>
  <path stroke="#c91802" d="M7 12h1m2 0h1m182 0h1m2 0h1M5 13h2m1 0h1m186 0h1m1 0h2M5 14h3m1 0h1m2 0h1m178 0h1m2 0h1m1 0h3M6 15h3m1 0h1m182 0h1m1 0h3M5 16h2m1 0h2m1 0h1m2 0h1m174 0h1m2 0h1m1 0h2m1 0h2M5 17h6m1 0h1m178 0h1m1 0h6M5 18h4m1 0h2m1 0h1m2 0h1m170 0h1m2 0h1m1 0h2m1 0h4M5 19h8m1 0h1m174 0h1m1 0h8M5 20h6m1 0h2m1 0h1m2 0h1m166 0h1m2 0h1m1 0h2m1 0h6M5 21h10m1 0h1m170 0h1m1 0h10M5 22h8m1 0h2m1 0h1m168 0h1m1 0h2m1 0h8M5 23h12m170 0h12M5 24h10m1 0h1m170 0h1m1 0h10M5 25h11m172 0h11M5 26h11m172 0h11M5 27h10m174 0h10M5 28h10m174 0h10M5 29h9m176 0h9M5 30h9m176 0h9M5 31h9m176 0h9M5 32h9m176 0h9M5 33h9m176 0h9M5 34h8m178 0h8M5 35h8m178 0h8M5 36h8m178 0h8M5 37h8m178 0h8M5 38h8m178 0h8M5 39h8m178 0h8M5 40h8m178 0h8M5 41h7m180 0h7M5 42h7m180 0h7M5 43h7m180 0h7M5 44h7m180 0h7M5 45h7m180 0h7M5 46h7m180 0h7M5 47h7m180 0h7M5 48h7m180 0h7M5 49h7m180 0h7M5 50h7m180 0h7M5 51h7m180 0h7M5 52h6m182 0h6M5 53h6m182 0h6M5 54h6m182 0h6M5 55h6m182 0h6M5 56h6m182 0h6M5 57h6m182 0h6M5 58h6m182 0h6M5 59h6m182 0h6M5 60h6m182 0h6M5 61h6m182 0h6M5 62h6m182 0h6M5 63h6m182 0h6M5 64h6m182 0h6M5 65h6m182 0h6M5 66h6m182 0h6M5 67h6m182 0h6M5 68h6m182 0h6M5 69h6m182 0h6M5 70h6m182 0h6M5 71h6m182 0h6M5 72h6m182 0h6M5 73h6m182 0h6M5 74h6m182 0h6M5 75h6m182 0h6M5 76h6m182 0h6M5 77h6m182 0h6M5 78h6m182 0h6M5 79h6m182 0h6M5 80h6m182 0h6M5 81h6m182 0h6M5 82h6m182 0h6M5 83h6m182 0h6M5 84h6m182 0h6M5 85h6m182 0h6M5 86h6m182 0h6M5 87h6m182 0h6M5 88h6m182 0h6M5 89h6m182 0h6M5 90h6m182 0h6M5 91h6m182 0h6M5 92h6m182 0h6M5 93h6m182 0h6M5 94h6m182 0h6M5 95h6m182 0h6M5 96h6m182 0h6M5 97h6m182 0h6M5 98h6m182 0h6M5 99h6m182 0h6M5 100h6m182 0h6M5 101h6m182 0h6M5 102h6m182 0h6M5 103h6m182 0h6M5 104h6m182 0h6M5 105h6m182 0h6M5 106h6m182 0h6M5 107h6m182 0h6M5 108h6m182 0h6M5 109h6m182 0h6M5 110h6m182 0h6M5 111h6m182 0h6M5 112h6m182 0h6M5 113h6m182 0h6M5 114h6m182 0h6M5 115h6m182 0h6M5 116h6m182 0h6M5 117h6m182 0h6M5 118h6m182 0h6M5 119h6m182 0h6M5 120h6m182 0h6M5 121h6m182 0h6M5 122h6m182 0h6M5 123h6m182 0h6M5 124h6m182 0h6M5 125h6m182 0h6M5 126h6m182 0h6M5 127h6m182 0h6M5 128h6m182 0h6M5 129h6m182 0h6M5 130h6m182 0h6M5 131h6m182 0h6M5 132h6m182 0h6M5 133h6m182 0h6M5 134h6m182 0h6M5 135h6m182 0h6M5 136h6m182 0h6M5 137h7m180 0h7M5 138h7m180 0h7M5 139h7m180 0h7M5 140h7m180 0h7M5 141h7m180 0h7M5 142h7m180 0h7M5 143h7m180 0h7M5 144h7m180 0h7M5 145h7m180 0h7M5 146h7m180 0h7M5 147h7m180 0h7M5 148h8m178 0h8M5 149h8m178 0h8M5 150h8m178 0h8M5 151h8m178 0h8M5 152h8m178 0h8M5 153h8m178 0h8M5 154h8m178 0h8M5 155h9m176 0h9M5 156h9m176 0h9M5 157h9m176 0h9M5 158h9m176 0h9M5 159h9m176 0h9M5 160h10m174 0h10M5 161h10m174 0h10M5 162h11m172 0h11M5 163h11m172 0h11M5 164h10m1 0h1m170 0h1m1 0h10M5 165h12m170 0h12M5 166h8m1 0h2m1 0h1m168 0h1m1 0h2m1 0h8M5 167h10m1 0h1m170 0h1m1 0h10M5 168h6m1 0h2m1 0h1m2 0h1m166 0h1m2 0h1m1 0h2m1 0h6M5 169h8m1 0h1m174 0h1m1 0h8M5 170h4m1 0h2m1 0h1m2 0h1m170 0h1m2 0h1m1 0h2m1 0h4M5 171h6m1 0h1m178 0h1m1 0h6M5 172h2m1 0h2m1 0h1m2 0h1m174 0h1m2 0h1m1 0h2m1 0h2M5 173h4m1 0h1m182 0h1m1 0h4M5 174h3m1 0h1m2 0h1m178 0h1m2 0h1m1 0h3M5 175h2m1 0h1m186 0h1m1 0h2M7 176h1m2 0h1m182 0h1m2 0h1M5 180h41m112 0h41M5 182h42m110 0h42M5 183h42m110 0h42m-153 1h1m110 0h1m-112 1h1m110 0h1m-112 1h1m110 0h1m-112 1h1m110 0h1m-112 1h1m110 0h1m-112 1h1m110 0h1m-112 1h1m110 0h1m-112 1h1m110 0h1m-112 1h1m110 0h1m-112 1h1m110 0h1m-112 1h1m110 0h1m-112 1h1m110 0h1M5 196h1m40 0h1m110 0h1m40 0h1M6 197h1m39 0h1m110 0h1m39 0h1M7 198h2m37 0h1m110 0h1m37 0h2M8 199h39m110 0h39m-146 3h104"/>
  <path stroke="#989898" d="M50 17h104M37 18h13m104 0h13M29 19h8m130 0h8M25 20h4m146 0h4M22 21h3m154 0h3M20 22h2m160 0h2M19 23h1m164 0h1M18 24h1m166 0h1M17 25h1m168 0h1M17 26h1m168 0h1M16 27h1m170 0h1M16 28h1m170 0h1M15 29h1m172 0h1M15 30h1m172 0h1M15 31h1m172 0h1M15 32h1m172 0h1M15 33h1m172 0h1M14 34h1m174 0h1M14 35h1m174 0h1M14 36h1m174 0h1M14 37h1m174 0h1M14 38h1m174 0h1M14 39h1m174 0h1M14 40h1m174 0h1M13 41h1m176 0h1M13 42h1m176 0h1M13 43h1m176 0h1M13 44h1m176 0h1M13 45h1m176 0h1M13 46h1m176 0h1M13 47h1m176 0h1M13 48h1m176 0h1M13 49h1m176 0h1M13 50h1m176 0h1M13 51h1m176 0h1M12 52h1m178 0h1M12 53h1m178 0h1M12 54h1m178 0h1M12 55h1m178 0h1M12 56h1m178 0h1M12 57h1m178 0h1M12 58h1m178 0h1M12 59h1m178 0h1M12 60h1m178 0h1M12 61h1m178 0h1M12 62h1m178 0h1M12 63h1m178 0h1M12 64h1m178 0h1M12 65h1m178 0h1M12 66h1m178 0h1M12 67h1m178 0h1M12 68h1m178 0h1M12 69h1m178 0h1M12 70h1m178 0h1M12 71h1m178 0h1M12 72h1m178 0h1M12 73h1m178 0h1M12 74h1m178 0h1M12 75h1m178 0h1M12 76h1m178 0h1M12 77h1m178 0h1M12 78h1m178 0h1M12 79h1m178 0h1M12 80h1m178 0h1M12 81h1m178 0h1M12 82h1m178 0h1M12 83h1m178 0h1M12 84h1m178 0h1M12 85h1m178 0h1M12 86h1m178 0h1M12 87h1m178 0h1M12 88h1m178 0h1M12 89h1m178 0h1M12 90h1m178 0h1M12 91h1m178 0h1M12 92h1m178 0h1M12 93h1m178 0h1M12 94h1m178 0h1M12 95h1m178 0h1M12 96h1m178 0h1M12 97h1m178 0h1M12 98h1m178 0h1M12 99h1m178 0h1m-180 1h1m178 0h1m-180 1h1m178 0h1m-180 1h1m178 0h1m-180 1h1m178 0h1m-180 1h1m178 0h1m-180 1h1m178 0h1m-180 1h1m178 0h1m-180 1h1m178 0h1m-180 1h1m178 0h1m-180 1h1m178 0h1m-180 1h1m178 0h1m-180 1h1m178 0h1m-180 1h1m178 0h1m-180 1h1m178 0h1m-180 1h1m178 0h1m-180 1h1m178 0h1m-180 1h1m178 0h1m-180 1h1m178 0h1m-180 1h1m178 0h1m-180 1h1m178 0h1m-180 1h1m178 0h1m-180 1h1m178 0h1m-180 1h1m178 0h1m-180 1h1m178 0h1m-180 1h1m178 0h1m-180 1h1m178 0h1m-180 1h1m178 0h1m-180 1h1m178 0h1m-180 1h1m178 0h1m-180 1h1m178 0h1m-180 1h1m178 0h1m-180 1h1m178 0h1m-180 1h1m178 0h1m-180 1h1m178 0h1m-180 1h1m178 0h1m-180 1h1m178 0h1m-180 1h1m178 0h1m-179 1h1m176 0h1m-178 1h1m176 0h1m-178 1h1m176 0h1m-178 1h1m176 0h1m-178 1h1m176 0h1m-178 1h1m176 0h1m-178 1h1m176 0h1m-178 1h1m176 0h1m-178 1h1m176 0h1m-178 1h1m176 0h1m-178 1h1m176 0h1m-177 1h1m174 0h1m-176 1h1m174 0h1m-176 1h1m174 0h1m-176 1h1m174 0h1m-176 1h1m174 0h1m-176 1h1m174 0h1m-176 1h1m174 0h1m-175 1h1m172 0h1m-174 1h1m172 0h1m-174 1h1m172 0h1m-174 1h1m172 0h1m-174 1h1m172 0h1m-173 1h1m170 0h1m-172 1h1m170 0h1m-171 1h1m168 0h1m-170 1h1m168 0h1m-169 1h1m166 0h1m-167 1h1m164 0h1m-165 1h2m160 0h2m-162 1h3m154 0h3m-157 1h4m146 0h4m-150 1h8m130 0h8m-138 1h13m104 0h13m-117 1h104"/>
  <path stroke="#000" d="M50 18h104M37 19h14m102 0h14M29 20h9m128 0h9M25 21h5m144 0h5M22 22h4m152 0h4M20 23h3m158 0h3M19 24h2m162 0h2M18 25h2m164 0h2M18 26h1m166 0h1M17 27h2m166 0h2M17 28h1m168 0h1M16 29h2m168 0h2M16 30h1m170 0h1M16 31h1m170 0h1M16 32h1m170 0h1M16 33h1m170 0h1M15 34h2m170 0h2M15 35h2m170 0h2M15 36h1m172 0h1M15 37h1m172 0h1M15 38h1m172 0h1M15 39h1m172 0h1M15 40h1m172 0h1M14 41h2m172 0h2M14 42h1m174 0h1M14 43h1m174 0h1M14 44h1m174 0h1M14 45h1m174 0h1M14 46h1m174 0h1M14 47h1m174 0h1M14 48h1m174 0h1M14 49h1m174 0h1M14 50h1m174 0h1M14 51h1m174 0h1M13 52h2m174 0h2M13 53h1m176 0h1M13 54h1m176 0h1M13 55h1m176 0h1M13 56h1m176 0h1M13 57h1m176 0h1M13 58h1m176 0h1M13 59h1m176 0h1M13 60h1m176 0h1M13 61h1m176 0h1M13 62h1m176 0h1M13 63h1m176 0h1M13 64h1m176 0h1M13 65h1m176 0h1M13 66h1m176 0h1M13 67h1m176 0h1M13 68h1m176 0h1M13 69h1m176 0h1M13 70h1m176 0h1M13 71h1m176 0h1M13 72h1m176 0h1M13 73h1m176 0h1M13 74h1m176 0h1M13 75h1m176 0h1M13 76h1m176 0h1M13 77h1m176 0h1M13 78h1m176 0h1M13 79h1m176 0h1M13 80h1m176 0h1M13 81h1m176 0h1M13 82h1m176 0h1M13 83h1m176 0h1M13 84h1m176 0h1M13 85h1m176 0h1M13 86h1m176 0h1M13 87h1m176 0h1M13 88h1m176 0h1M13 89h1m176 0h1M13 90h1m176 0h1M13 91h1m176 0h1M13 92h1m176 0h1M13 93h1m176 0h1M13 94h1m176 0h1M13 95h1m176 0h1M13 96h1m176 0h1M13 97h1m176 0h1M13 98h1m176 0h1M13 99h1m176 0h1m-178 1h1m176 0h1m-178 1h1m176 0h1m-178 1h1m176 0h1m-178 1h1m176 0h1m-178 1h1m176 0h1m-178 1h1m176 0h1m-178 1h1m176 0h1m-178 1h1m176 0h1m-178 1h1m176 0h1m-178 1h1m176 0h1m-178 1h1m176 0h1m-178 1h1m176 0h1m-178 1h1m176 0h1m-178 1h1m176 0h1m-178 1h1m176 0h1m-178 1h1m176 0h1m-178 1h1m176 0h1m-178 1h1m176 0h1m-178 1h1m176 0h1m-178 1h1m176 0h1m-178 1h1m176 0h1m-178 1h1m176 0h1m-178 1h1m176 0h1m-178 1h1m176 0h1m-178 1h1m176 0h1m-178 1h1m176 0h1m-178 1h1m176 0h1m-178 1h1m176 0h1m-178 1h1m176 0h1m-178 1h1m176 0h1m-178 1h1m176 0h1m-178 1h1m176 0h1m-178 1h1m176 0h1m-178 1h1m176 0h1m-178 1h1m176 0h1m-178 1h1m176 0h1m-178 1h2m174 0h2m-177 1h1m174 0h1m-176 1h1m174 0h1m-176 1h1m174 0h1m-176 1h1m174 0h1m-176 1h1m174 0h1m-176 1h1m174 0h1m-176 1h1m174 0h1m-176 1h1m174 0h1m-176 1h1m174 0h1m-176 1h1m174 0h1m-176 1h2m172 0h2m-175 1h1m172 0h1m-174 1h1m172 0h1m-174 1h1m172 0h1m-174 1h1m172 0h1m-174 1h1m172 0h1m-174 1h2m170 0h2m-174 1h2m170 0h2m-173 1h1m170 0h1m-172 1h1m170 0h1m-172 1h1m170 0h1m-172 1h1m170 0h1m-172 1h2m168 0h2m-171 1h1m168 0h1m-170 1h2m166 0h2m-169 1h1m166 0h1m-168 1h2m164 0h2m-167 1h2m162 0h2m-165 1h3m158 0h3m-162 1h4m152 0h4m-157 1h5m144 0h5m-150 1h9m128 0h9m-138 1h14m102 0h14m-117 1h104M4 181h1m194 0h1M4 182h1m194 0h1M4 183h1m194 0h1M4 184h1m6 0h2m2 0h2m2 0h2m2 0h2m2 0h2m2 0h2m2 0h2m2 0h2m2 0h1m116 0h1m2 0h2m2 0h2m2 0h2m2 0h2m2 0h2m2 0h2m2 0h2m2 0h2m6 0h1M4 185h1m4 0h2m2 0h2m2 0h2m2 0h2m2 0h2m2 0h2m2 0h2m2 0h2m2 0h2m118 0h2m2 0h2m2 0h2m2 0h2m2 0h2m2 0h2m2 0h2m2 0h2m2 0h2m4 0h1M4 186h1m3 0h1m2 0h2m2 0h2m2 0h2m2 0h2m2 0h2m2 0h2m2 0h2m2 0h2m2 0h1m116 0h1m2 0h2m2 0h2m2 0h2m2 0h2m2 0h2m2 0h2m2 0h2m2 0h2m2 0h1m3 0h1M4 187h1m4 0h2m2 0h2m2 0h2m2 0h2m2 0h2m2 0h2m2 0h2m2 0h2m2 0h2m118 0h2m2 0h2m2 0h2m2 0h2m2 0h2m2 0h2m2 0h2m2 0h2m2 0h2m4 0h1M4 188h1m3 0h1m2 0h2m2 0h2m2 0h2m2 0h2m2 0h2m2 0h2m2 0h2m2 0h2m2 0h1m116 0h1m2 0h2m2 0h2m2 0h2m2 0h2m2 0h2m2 0h2m2 0h2m2 0h2m2 0h1m3 0h1M4 189h1m4 0h2m2 0h2m2 0h2m2 0h2m2 0h2m2 0h2m2 0h2m2 0h2m2 0h2m118 0h2m2 0h2m2 0h2m2 0h2m2 0h2m2 0h2m2 0h2m2 0h2m2 0h2m4 0h1M4 190h1m3 0h1m2 0h2m2 0h2m2 0h2m2 0h2m2 0h2m2 0h2m2 0h2m2 0h2m2 0h1m116 0h1m2 0h2m2 0h2m2 0h2m2 0h2m2 0h2m2 0h2m2 0h2m2 0h2m2 0h1m3 0h1M4 191h1m4 0h2m2 0h2m2 0h2m2 0h2m2 0h2m2 0h2m2 0h2m2 0h2m2 0h2m118 0h2m2 0h2m2 0h2m2 0h2m2 0h2m2 0h2m2 0h2m2 0h2m2 0h2m4 0h1M4 192h1m3 0h1m2 0h2m2 0h2m2 0h2m2 0h2m2 0h2m2 0h2m2 0h2m2 0h2m2 0h1m116 0h1m2 0h2m2 0h2m2 0h2m2 0h2m2 0h2m2 0h2m2 0h2m2 0h2m2 0h1m3 0h1M4 193h1m4 0h2m2 0h2m2 0h2m2 0h2m2 0h2m2 0h2m2 0h2m2 0h2m2 0h2m118 0h2m2 0h2m2 0h2m2 0h2m2 0h2m2 0h2m2 0h2m2 0h2m2 0h2m4 0h1M4 194h1m3 0h1m2 0h2m2 0h2m2 0h2m2 0h2m2 0h2m2 0h2m2 0h2m2 0h2m2 0h1m116 0h1m2 0h2m2 0h2m2 0h2m2 0h2m2 0h2m2 0h2m2 0h2m2 0h2m2 0h1m3 0h1M4 195h1m4 0h2m2 0h2m2 0h2m2 0h2m2 0h2m2 0h2m2 0h2m2 0h2m2 0h2m118 0h2m2 0h2m2 0h2m2 0h2m2 0h2m2 0h2m2 0h2m2 0h2m2 0h2m4 0h1M4 196h1m6 0h2m2 0h2m2 0h2m2 0h2m2 0h2m2 0h2m2 0h2m2 0h2m122 0h2m2 0h2m2 0h2m2 0h2m2 0h2m2 0h2m2 0h2m2 0h2m6 0h1M5 197h1m192 0h1M5 198h1m192 0h1M6 199h2m188 0h2M8 200h40m108 0h40m-149 1h1m108 0h1m-109 1h2m104 0h2m-106 1h104"/>
  <path stroke="rgba(35,30,30,0.2)" d="M51 19h102M38 20h13m102 0h13M30 21h8m128 0h8M26 22h4m144 0h4M23 23h3m152 0h3M21 24h2m158 0h2M20 25h1m162 0h1M19 26h1m11 0h142m11 0h1M19 27h1m7 0h150m7 0h1M18 28h1m6 0h154m6 0h1M18 29h1m5 0h156m5 0h1M17 30h1m5 0h158m5 0h1M17 31h1m5 0h158m5 0h1M17 32h1m4 0h160m4 0h1M17 33h1m4 0h160m4 0h1M17 34h1m4 0h160m4 0h1M17 35h1m4 0h160m4 0h1M16 36h1m4 0h162m4 0h1M16 37h1m4 0h162m4 0h1M16 38h1m4 0h162m4 0h1M16 39h1m4 0h162m4 0h1M16 40h1m4 0h162m4 0h1M16 41h1m4 0h162m4 0h1M15 42h1m5 0h162m5 0h1M15 43h1m5 0h162m5 0h1M15 44h1m5 0h162m5 0h1M15 45h1m5 0h162m5 0h1M15 46h1m5 0h162m5 0h1M15 47h1m5 0h162m5 0h1M15 48h1m5 0h162m5 0h1M15 49h1m5 0h162m5 0h1M15 50h1m5 0h162m5 0h1M15 51h1m5 0h162m5 0h1M15 52h1m5 0h162m5 0h1M14 53h1m6 0h162m6 0h1M14 54h1m6 0h162m6 0h1M14 55h1m6 0h162m6 0h1M14 56h1m6 0h162m6 0h1M14 57h1m6 0h162m6 0h1M14 58h1m6 0h162m6 0h1M14 59h1m6 0h162m6 0h1M14 60h1m6 0h162m6 0h1M14 61h1m6 0h162m6 0h1M14 62h1m6 0h162m6 0h1M14 63h1m6 0h162m6 0h1M14 64h1m6 0h162m6 0h1M14 65h1m6 0h162m6 0h1M14 66h1m6 0h162m6 0h1M14 67h1m6 0h162m6 0h1M14 68h1m6 0h162m6 0h1M14 69h1m6 0h162m6 0h1M14 70h1m6 0h162m6 0h1M14 71h1m6 0h162m6 0h1M14 72h1m6 0h162m6 0h1M14 73h1m6 0h162m6 0h1M14 74h1m6 0h162m6 0h1M14 75h1m6 0h162m6 0h1M14 76h1m6 0h162m6 0h1M14 77h1m6 0h162m6 0h1M14 78h1m6 0h162m6 0h1M14 79h1m6 0h162m6 0h1M14 80h1m6 0h162m6 0h1M14 81h1m6 0h162m6 0h1M14 82h1m6 0h162m6 0h1M14 83h1m6 0h162m6 0h1M14 84h1m6 0h162m6 0h1M14 85h1m6 0h162m6 0h1M14 86h1m6 0h162m6 0h1M14 87h1m6 0h162m6 0h1M14 88h1m6 0h162m6 0h1M14 89h1m6 0h162m6 0h1M14 90h1m6 0h162m6 0h1M14 91h1m6 0h162m6 0h1M14 92h1m6 0h162m6 0h1M14 93h1m6 0h162m6 0h1M14 94h1m6 0h162m6 0h1M14 95h1m6 0h162m6 0h1M14 96h1m6 0h162m6 0h1M14 97h1m6 0h162m6 0h1M14 98h1m6 0h162m6 0h1M14 99h1m6 0h162m6 0h1m-176 1h1m6 0h162m6 0h1m-176 1h1m6 0h162m6 0h1m-176 1h1m6 0h162m6 0h1m-176 1h1m6 0h162m6 0h1m-176 1h1m6 0h162m6 0h1m-176 1h1m6 0h162m6 0h1m-176 1h1m6 0h162m6 0h1m-176 1h1m6 0h162m6 0h1m-176 1h1m6 0h162m6 0h1m-176 1h1m6 0h162m6 0h1m-176 1h1m6 0h162m6 0h1m-176 1h1m6 0h162m6 0h1m-176 1h1m6 0h162m6 0h1m-176 1h1m6 0h162m6 0h1m-176 1h1m6 0h162m6 0h1m-176 1h1m6 0h162m6 0h1m-176 1h1m6 0h162m6 0h1m-176 1h1m6 0h162m6 0h1m-176 1h1m6 0h162m6 0h1m-176 1h1m6 0h162m6 0h1m-176 1h1m6 0h162m6 0h1m-176 1h1m6 0h162m6 0h1m-176 1h1m6 0h162m6 0h1m-176 1h1m6 0h162m6 0h1m-176 1h1m6 0h162m6 0h1m-176 1h1m6 0h162m6 0h1m-176 1h1m6 0h162m6 0h1m-176 1h1m6 0h162m6 0h1m-176 1h1m6 0h162m6 0h1m-176 1h1m6 0h162m6 0h1m-176 1h1m6 0h162m6 0h1m-176 1h1m6 0h162m6 0h1m-176 1h1m6 0h162m6 0h1m-176 1h1m6 0h162m6 0h1m-176 1h1m6 0h162m6 0h1m-176 1h1m6 0h162m6 0h1m-175 1h1m5 0h162m5 0h1m-174 1h1m5 0h162m5 0h1m-174 1h1m5 0h162m5 0h1m-174 1h1m5 0h162m5 0h1m-174 1h1m5 0h162m5 0h1m-174 1h1m5 0h162m5 0h1m-174 1h1m5 0h162m5 0h1m-174 1h1m5 0h162m5 0h1m-174 1h1m5 0h162m5 0h1m-174 1h1m5 0h162m5 0h1m-174 1h1m5 0h162m5 0h1m-173 1h1m4 0h162m4 0h1m-172 1h1m4 0h162m4 0h1m-172 1h1m4 0h162m4 0h1m-172 1h1m4 0h162m4 0h1m-172 1h1m4 0h162m4 0h1m-172 1h1m4 0h162m4 0h1m-171 1h1m4 0h160m4 0h1m-170 1h1m4 0h160m4 0h1m-170 1h1m4 0h160m4 0h1m-170 1h1m4 0h160m4 0h1m-170 1h1m5 0h158m5 0h1m-170 1h1m5 0h158m5 0h1m-169 1h1m5 0h156m5 0h1m-168 1h1m6 0h154m6 0h1m-167 1h1m7 0h150m7 0h1m-166 1h1m11 0h142m11 0h1m-165 1h1m162 0h1m-163 1h2m158 0h2m-160 1h3m152 0h3m-155 1h4m144 0h4m-148 1h8m128 0h8m-136 1h13m102 0h13m-115 1h102"/>
  <path stroke="rgba(0,0,0,0.2)" d="M51 20h102M38 21h128M30 22h144M26 23h152M23 24h158M21 25h162M20 26h11m142 0h11M20 27h7m150 0h7M19 28h6m154 0h6M19 29h5m156 0h5M18 30h5m158 0h5M18 31h5m158 0h5M18 32h4m160 0h4M18 33h4m160 0h4M18 34h4m160 0h4M18 35h4m160 0h4M17 36h4m162 0h4M17 37h4m162 0h4M17 38h4m162 0h4M17 39h4m162 0h4M17 40h4m162 0h4M17 41h4m162 0h4M16 42h5m162 0h5M16 43h5m162 0h5M16 44h5m162 0h5M16 45h5m162 0h5M16 46h5m162 0h5M16 47h5m162 0h5M16 48h5m162 0h5M16 49h5m162 0h5M16 50h5m162 0h5M16 51h5m162 0h5M16 52h5m162 0h5M15 53h6m162 0h6M15 54h6m162 0h6M15 55h6m162 0h6M15 56h6m162 0h6M15 57h6m162 0h6M15 58h6m162 0h6M15 59h6m162 0h6M15 60h6m162 0h6M15 61h6m162 0h6M15 62h6m162 0h6M15 63h6m162 0h6M15 64h6m162 0h6M15 65h6m162 0h6M15 66h6m162 0h6M15 67h6m162 0h6M15 68h6m162 0h6M15 69h6m162 0h6M15 70h6m162 0h6M15 71h6m162 0h6M15 72h6m162 0h6M15 73h6m162 0h6M15 74h6m162 0h6M15 75h6m162 0h6M15 76h6m162 0h6M15 77h6m162 0h6M15 78h6m162 0h6M15 79h6m162 0h6M15 80h6m162 0h6M15 81h6m162 0h6M15 82h6m162 0h6M15 83h6m162 0h6M15 84h6m162 0h6M15 85h6m162 0h6M15 86h6m162 0h6M15 87h6m162 0h6M15 88h6m162 0h6M15 89h6m162 0h6M15 90h6m162 0h6M15 91h6m162 0h6M15 92h6m162 0h6M15 93h6m162 0h6M15 94h6m162 0h6M15 95h6m162 0h6M15 96h6m162 0h6M15 97h6m162 0h6M15 98h6m162 0h6M15 99h6m162 0h6m-174 1h6m162 0h6m-174 1h6m162 0h6m-174 1h6m162 0h6m-174 1h6m162 0h6m-174 1h6m162 0h6m-174 1h6m162 0h6m-174 1h6m162 0h6m-174 1h6m162 0h6m-174 1h6m162 0h6m-174 1h6m162 0h6m-174 1h6m162 0h6m-174 1h6m162 0h6m-174 1h6m162 0h6m-174 1h6m162 0h6m-174 1h6m162 0h6m-174 1h6m162 0h6m-174 1h6m162 0h6m-174 1h6m162 0h6m-174 1h6m162 0h6m-174 1h6m162 0h6m-174 1h6m162 0h6m-174 1h6m162 0h6m-174 1h6m162 0h6m-174 1h6m162 0h6m-174 1h6m162 0h6m-174 1h6m162 0h6m-174 1h6m162 0h6m-174 1h6m162 0h6m-174 1h6m162 0h6m-174 1h6m162 0h6m-174 1h6m162 0h6m-174 1h6m162 0h6m-174 1h6m162 0h6m-174 1h6m162 0h6m-174 1h6m162 0h6m-174 1h6m162 0h6m-173 1h5m162 0h5m-172 1h5m162 0h5m-172 1h5m162 0h5m-172 1h5m162 0h5m-172 1h5m162 0h5m-172 1h5m162 0h5m-172 1h5m162 0h5m-172 1h5m162 0h5m-172 1h5m162 0h5m-172 1h5m162 0h5m-172 1h5m162 0h5m-171 1h4m162 0h4m-170 1h4m162 0h4m-170 1h4m162 0h4m-170 1h4m162 0h4m-170 1h4m162 0h4m-170 1h4m162 0h4m-169 1h4m160 0h4m-168 1h4m160 0h4m-168 1h4m160 0h4m-168 1h4m160 0h4m-168 1h5m158 0h5m-168 1h5m158 0h5m-167 1h5m156 0h5m-166 1h6m154 0h6m-165 1h7m150 0h7m-164 1h11m142 0h11m-163 1h162m-160 1h158m-155 1h152m-148 1h144m-136 1h128m-115 1h102"/>
</svg>
